<?xml version="1.0" encoding="UTF-8"?>
<svg version="1.1" xmlns="http://www.w3.org/2000/svg" width="512" height="512">
<path d="M0 0 C1.89891665 -0.00461248 3.79782973 -0.01096772 5.69673538 -0.01890898 C10.89965741 -0.0355777 16.10228524 -0.02736701 21.30520821 -0.0149641 C26.92220153 -0.00590593 32.53914462 -0.01988717 38.15612793 -0.03088379 C49.15381592 -0.04866535 60.15139469 -0.0448306 71.14908695 -0.03323323 C80.0875596 -0.02419777 89.02600164 -0.0229754 97.96447754 -0.02732849 C99.23690158 -0.02794142 100.50932562 -0.02855436 101.82030797 -0.02918586 C104.40525533 -0.03046477 106.99020267 -0.03176162 109.57515001 -0.03307623 C133.12040645 -0.04415589 156.66558972 -0.03266806 180.21083385 -0.01170584 C201.69494977 0.00727594 223.17897084 0.0055774 244.66308594 -0.0135498 C268.81275109 -0.03497838 292.96234883 -0.04338234 317.11202621 -0.03110075 C319.68743641 -0.02982656 322.26284662 -0.02856908 324.83825684 -0.02732849 C326.73895742 -0.02640284 326.73895742 -0.02640284 328.678056 -0.02545848 C337.60524853 -0.02200555 346.53240741 -0.02783273 355.45959473 -0.0372467 C366.33963581 -0.04846787 377.21956147 -0.04542405 388.09958935 -0.02412373 C393.65019267 -0.01361502 399.20060357 -0.00948862 404.75120544 -0.02272034 C409.83395931 -0.03465349 414.91634268 -0.02806616 419.99906301 -0.00681013 C421.83607286 -0.00234802 423.67311411 -0.00460151 425.5101037 -0.01431328 C438.17056892 -0.07610349 448.1763529 0.71168603 457.72167969 9.79699707 C467.88109752 20.14542732 467.98196762 31.36175772 467.90930176 45.10656738 C467.91391423 47.00548404 467.92026948 48.90439712 467.92821074 50.80330276 C467.94487946 56.00622479 467.93666877 61.20885262 467.92426586 66.41177559 C467.91520769 72.02876891 467.92918892 77.645712 467.94018555 83.26269531 C467.9579671 94.26038331 467.95413236 105.25796207 467.94253498 116.25565434 C467.93349953 125.19412698 467.93227716 134.13256902 467.93663025 143.07104492 C467.93724318 144.34346896 467.93785611 145.61589301 467.93848762 146.92687535 C467.93976653 149.51182271 467.94106338 152.09677006 467.94237798 154.6817174 C467.95345765 178.22697383 467.94196982 201.7721571 467.9210076 225.31740123 C467.90202582 246.80151715 467.90372436 268.28553823 467.92285156 289.76965332 C467.94428014 313.91931848 467.9526841 338.06891621 467.94040251 362.2185936 C467.93912832 364.7940038 467.93787084 367.369414 467.93663025 369.94482422 C467.93601315 371.21195794 467.93539604 372.47909167 467.93476024 373.78462338 C467.93130731 382.71181592 467.93713449 391.63897479 467.94654846 400.56616211 C467.95776962 411.4462032 467.95472581 422.32612886 467.93342549 433.20615673 C467.92291678 438.75676005 467.91879038 444.30717095 467.93202209 449.85777283 C467.94395525 454.9405267 467.93736792 460.02291006 467.91611189 465.1056304 C467.91164978 466.94264024 467.91390327 468.77968149 467.92361504 470.61667109 C467.98540525 483.2771363 467.19761573 493.28292028 458.11230469 502.82824707 C447.76387443 512.9876649 436.54754404 513.088535 422.80273438 513.01586914 C420.90381772 513.02048162 419.00490464 513.02683686 417.10599899 513.03477812 C411.90307696 513.05144684 406.70044913 513.04323615 401.49752617 513.03083324 C395.88053285 513.02177507 390.26358976 513.03575631 384.64660645 513.04675293 C373.64891845 513.06453449 362.65133969 513.06069974 351.65364742 513.04910237 C342.71517478 513.04006691 333.77673274 513.03884454 324.83825684 513.04319763 C323.56583279 513.04381056 322.29340875 513.0444235 320.9824264 513.045055 C318.39747905 513.04633391 315.8125317 513.04763076 313.22758436 513.04894537 C289.68232793 513.06002503 266.13714466 513.0485372 242.59190053 513.02757498 C221.10778461 513.0085932 199.62376353 513.01029174 178.13964844 513.02941895 C153.98998328 513.05084752 129.84038555 513.05925148 105.69070816 513.04696989 C103.11529796 513.0456957 100.53988775 513.04443822 97.96447754 513.04319763 C96.69734381 513.04258053 95.43021009 513.04196343 94.12467837 513.04132763 C85.19748584 513.03787469 76.27032697 513.04370187 67.34313965 513.05311584 C56.46309856 513.06433701 45.5831729 513.06129319 34.70314503 513.03999287 C29.15254171 513.02948416 23.60213081 513.02535776 18.05152893 513.03858948 C12.96877506 513.05052263 7.88639169 513.0439353 2.80367136 513.02267927 C0.96666151 513.01821717 -0.87037973 513.02047065 -2.70736933 513.03018242 C-15.36783454 513.09197263 -25.37361852 512.30418311 -34.91894531 503.21887207 C-45.07836314 492.87044182 -45.17923324 481.65411143 -45.10656738 467.90930176 C-45.11117986 466.01038511 -45.1175351 464.11147203 -45.12547636 462.21256638 C-45.14214508 457.00964435 -45.13393439 451.80701652 -45.12153149 446.60409355 C-45.11247331 440.98710023 -45.12645455 435.37015714 -45.13745117 429.75317383 C-45.15523273 418.75548583 -45.15139798 407.75790707 -45.13980061 396.76021481 C-45.13076516 387.82174216 -45.12954278 378.88330012 -45.13389587 369.94482422 C-45.13481527 368.03618816 -45.13481527 368.03618816 -45.13575324 366.08899379 C-45.13703215 363.50404643 -45.13832901 360.91909908 -45.13964361 358.33415174 C-45.15072327 334.78889531 -45.13923544 311.24371204 -45.11827322 287.69846791 C-45.09929144 266.21435199 -45.10098998 244.73033091 -45.12011719 223.24621582 C-45.14154576 199.09655066 -45.14994972 174.94695293 -45.13766813 150.79727554 C-45.13639394 148.22186534 -45.13513646 145.64645514 -45.13389587 143.07104492 C-45.13327877 141.8039112 -45.13266167 140.53677747 -45.13202587 139.23124576 C-45.12857293 130.30405322 -45.13440012 121.37689435 -45.14381409 112.44970703 C-45.15503525 101.56966594 -45.15199143 90.68974028 -45.13069111 79.80971241 C-45.1201824 74.25910909 -45.116056 68.70869819 -45.12928772 63.15809631 C-45.14122087 58.07534245 -45.13463354 52.99295908 -45.11337751 47.91023874 C-45.10891541 46.0732289 -45.11116889 44.23618765 -45.12088066 42.39919806 C-45.18267087 29.73873284 -44.39488135 19.73294886 -35.30957031 10.18762207 C-24.96114006 0.02820424 -13.74480967 -0.07266586 0 0 Z M-23.91113281 25.13293457 C-32.3015618 36.94168648 -26.59863281 54.02187506 -26.59863281 68.50793457 C130.48136719 68.50793457 287.56136719 68.50793457 449.40136719 68.50793457 C453.00691846 33.71441106 453.00691846 33.71441106 445.40136719 23.50793457 C440.44027515 19.13744873 437.54562884 18.36042001 431.08174515 18.37371349 C430.31471339 18.37136126 429.54768162 18.36900903 428.75740647 18.36658552 C426.16013612 18.35987291 423.56291553 18.36035442 420.96563721 18.36076355 C419.09552711 18.35746633 417.22541772 18.35374107 415.35530925 18.34962207 C410.19509605 18.33957781 405.03489448 18.33588139 399.87467289 18.33323276 C394.31761744 18.3293369 388.76057127 18.3197581 383.20352173 18.3110199 C369.77299163 18.29123545 356.34246075 18.28118691 342.91191971 18.27229211 C336.59281688 18.26791257 330.2737149 18.26254491 323.95461273 18.25730324 C302.95815336 18.24028921 281.96169415 18.22576895 260.96522903 18.2185545 C259.60693015 18.21807974 258.24863127 18.21760385 256.89033239 18.21712684 C255.87992414 18.21677227 255.87992414 18.21677227 254.84910361 18.21641054 C251.43618625 18.21520932 248.02326891 18.21399388 244.61035156 18.21276855 C243.59438918 18.21240833 243.59438918 18.21240833 242.5579023 18.21204083 C220.59335975 18.20414627 198.62887116 18.18071179 176.66435218 18.14821261 C153.45140751 18.11392884 130.23849312 18.09420586 107.02551913 18.09091026 C94.36816713 18.08874192 81.71089444 18.07994607 69.05356598 18.05444908 C58.27643884 18.03279019 47.49941028 18.02466791 36.72226384 18.03441586 C31.22080567 18.0389745 25.7195511 18.03698376 20.21812057 18.01765442 C15.18461933 18.00012142 10.1514717 18.00093984 5.11796722 18.01655171 C3.2942403 18.01894285 1.47048952 18.0145269 -0.35320076 18.00272306 C-2.82778255 17.98769479 -5.30109666 17.99721285 -7.77564621 18.01294994 C-8.84370479 17.99761663 -8.84370479 17.99761663 -9.93334031 17.98197356 C-16.22270582 18.06957932 -19.83955795 20.51114689 -23.91113281 25.13293457 Z M-26.59863281 86.50793457 C-26.68113281 151.88918457 -26.76363281 217.27043457 -26.84863281 284.63293457 C-26.88504883 305.30450195 -26.92146484 325.97606934 -26.95898438 347.27404785 C-26.97235915 365.74619923 -26.97235915 365.74619923 -26.98040771 384.21835327 C-26.98414593 392.46896902 -26.9988526 400.71947709 -27.02093506 408.97006226 C-27.04634839 418.4791596 -27.05798788 427.98815324 -27.05241261 437.49728482 C-27.04999686 442.36443381 -27.05389845 447.23135085 -27.07549334 452.09845757 C-27.09489024 456.49679058 -27.09597149 460.89472661 -27.08223724 465.29307747 C-27.08053625 466.88575386 -27.08565082 468.47845468 -27.09816313 470.07108283 C-27.11418906 472.23772421 -27.10558368 474.40293254 -27.09082413 476.56955147 C-27.09234301 477.77326491 -27.09386189 478.97697836 -27.0954268 480.21716797 C-26.31837517 485.36436303 -23.8128132 488.43829947 -19.97363281 491.82043457 C-15.97826927 494.65924551 -13.0471535 494.65196171 -8.27901077 494.64215565 C-7.51197901 494.64450788 -6.74494725 494.64686011 -5.9546721 494.64928362 C-3.35740174 494.65599623 -0.76018116 494.65551472 1.83709717 494.65510559 C3.70720727 494.65840281 5.57731666 494.66212807 7.44742513 494.66624707 C12.60763833 494.67629133 17.76783989 494.67998775 22.92806149 494.68263638 C28.48511693 494.68653224 34.0421631 494.69611104 39.59921265 494.70484924 C53.02974275 494.7246337 66.46027363 494.73468223 79.89081466 494.74357703 C86.20991749 494.74795657 92.52901948 494.75332423 98.84812164 494.7585659 C119.84458102 494.77557993 140.84104022 494.79010019 161.83750534 494.79731464 C163.19580422 494.7977894 164.55410311 494.79826529 165.91240199 494.79874231 C166.58600749 494.79897868 167.25961298 494.79921506 167.95363077 494.7994586 C171.36654812 494.80065982 174.77946547 494.80187526 178.19238281 494.80310059 C179.2083452 494.80346081 179.2083452 494.80346081 180.24483207 494.80382831 C202.20937463 494.81172287 224.17386321 494.83515736 246.13838219 494.86765653 C269.35132687 494.9019403 292.56424125 494.92166328 315.77721524 494.92495888 C328.43456725 494.92712722 341.09183994 494.93592307 353.7491684 494.96142006 C364.52629554 494.98307895 375.3033241 494.99120123 386.08047053 494.98145328 C391.5819287 494.97689464 397.08318328 494.97888538 402.5846138 494.99821472 C407.61811504 495.01574772 412.65126268 495.0149293 417.68476716 494.99931743 C419.50849408 494.99692629 421.33224485 495.00134224 423.15593514 495.01314608 C425.63051692 495.02817435 428.10383103 495.0186563 430.57838058 495.0029192 C431.64643916 495.01825251 431.64643916 495.01825251 432.73607469 495.03389558 C437.73622036 494.9642476 440.53535268 493.61333927 444.40136719 490.50793457 C448.60217674 485.73944805 449.52640541 483.37923884 449.52441502 477.06174278 C449.52556876 476.38890496 449.52672251 475.71606714 449.52791121 475.0228403 C449.53057754 472.74712598 449.52605658 470.47148105 449.5216217 468.19577026 C449.5220588 466.56047041 449.52293511 464.92517063 449.5242157 463.28987122 C449.52646878 458.76983204 449.52243151 454.24981636 449.51743992 449.72978017 C449.51308973 444.79056491 449.51453344 439.85135082 449.51525784 434.91213417 C449.51579067 425.31350889 449.51116197 415.71489293 449.50475651 406.11627004 C449.49757207 395.01936627 449.49676261 383.92246814 449.49597168 372.82556152 C449.49071584 343.51135106 449.47675481 314.19714268 449.46386719 284.88293457 C449.44324219 219.41918457 449.42261719 153.95543457 449.40136719 86.50793457 C292.32136719 86.50793457 135.24136719 86.50793457 -26.59863281 86.50793457 Z " fill="#000000" transform="translate(44.5986328125,-0.5079345703125)"/>
<path d="M0 0 C9.26867098 7.23571573 14.61389824 16.04167776 17.25 27.4375 C17.97082721 33.77978462 17.81454546 40.18946503 17.78125 46.5625 C17.7839514 48.39990442 17.78783918 50.23730744 17.79284668 52.07470703 C17.79871129 55.90736635 17.79027761 59.73965029 17.77148438 63.57226562 C17.74869664 68.45413097 17.76183616 73.3351163 17.78577423 78.21694946 C17.80031491 82.00568116 17.79558858 85.79420851 17.78526306 89.58294678 C17.78261855 91.38165393 17.78578418 93.1803804 17.79518127 94.97906494 C17.85719469 110.18029213 15.99929584 123.00466543 5.25 134.59375 C-5.13250777 144.53129315 -16.29058725 146.94067381 -30.1875 146.71484375 C-41.59322301 146.24428744 -51.20061456 140.37429467 -59 132.3125 C-66.0751635 123.99459321 -68.88876101 114.16090179 -68.92700195 103.46289062 C-68.93357315 102.6622821 -68.94014435 101.86167358 -68.94691467 101.0368042 C-68.96660972 98.38911841 -68.97830539 95.74148941 -68.98828125 93.09375 C-68.99235678 92.18566086 -68.9964323 91.27757172 -69.00063133 90.34196472 C-69.02148168 85.53006215 -69.03578464 80.71818795 -69.04516602 75.90625 C-69.05619352 70.9614778 -69.09055388 66.01716018 -69.13033772 61.07254791 C-69.15662527 57.24954454 -69.16486885 53.42664718 -69.16844749 49.6035614 C-69.17328668 47.78249563 -69.18482352 45.96143373 -69.20348549 44.14045715 C-69.3515616 28.72645975 -67.58293399 16.29000425 -56.75 4.4375 C-40.6179997 -10.30680135 -18.193677 -12.15407503 0 0 Z M-45.75 19.4375 C-49.44087711 25.4706645 -50.89995833 30.75383636 -50.91113281 37.8112793 C-50.91609772 38.55964554 -50.92106262 39.30801178 -50.92617798 40.07905579 C-50.94078973 42.55661947 -50.94760123 45.03411904 -50.953125 47.51171875 C-50.95887887 49.2370453 -50.96463657 50.96237184 -50.97039795 52.68769836 C-50.98090624 56.30832212 -50.9867495 59.92892369 -50.99023438 63.54956055 C-50.99570766 68.17519459 -51.01971133 72.80053258 -51.04820633 77.42607403 C-51.06689111 80.99242489 -51.07204149 84.55870542 -51.07357025 88.12510109 C-51.07658598 89.82944157 -51.08457784 91.53378114 -51.09775543 93.23807335 C-51.11493264 95.63118911 -51.11290723 98.02359458 -51.10644531 100.41674805 C-51.1156601 101.11263031 -51.12487488 101.80851257 -51.1343689 102.52548218 C-51.06692968 110.55361422 -48.21921863 116.87567732 -42.75390625 122.671875 C-36.85446071 127.86982702 -30.49278715 129.17886448 -22.74609375 128.8828125 C-15.38081122 127.78810297 -9.75703638 124.20703267 -5.00390625 118.57421875 C-1.57129188 112.72487277 -0.3018696 107.23336255 -0.34594727 100.51196289 C-0.33565239 99.39072777 -0.33565239 99.39072777 -0.32514954 98.24684143 C-0.30700163 95.80108082 -0.31070155 93.35596907 -0.31640625 90.91015625 C-0.31183871 89.19436945 -0.30653143 87.47858448 -0.30052185 85.76280212 C-0.29161435 82.1761835 -0.29398687 78.58978782 -0.30395508 75.00317383 C-0.31544242 70.4258237 -0.2952251 65.84924532 -0.26603794 61.2719965 C-0.24761906 57.73130981 -0.24797967 54.19080615 -0.25367546 50.65008354 C-0.25382798 48.96332148 -0.24784171 47.27654646 -0.23538399 45.5898304 C-0.04307615 32.96264583 -0.04307615 32.96264583 -4.75 21.4375 C-5.28706322 20.58932457 -5.28706322 20.58932457 -5.8349762 19.72401428 C-9.58738337 14.57377388 -14.89279768 12.38990077 -20.75 10.4375 C-30.66607163 9.34565818 -38.79170225 12.31738137 -45.75 19.4375 Z " fill="#000000" transform="translate(281.75,220.5625)"/>
<path d="M0 0 C9.63419674 6.9334629 15.4570728 16.07990839 17.96069336 27.7440033 C18.92239753 34.51239967 18.6901029 41.41051296 18.68359375 48.234375 C18.68748863 49.94154462 18.69182491 51.64871329 18.69657898 53.35588074 C18.70401245 56.92389067 18.70377123 60.49180161 18.69848633 64.05981445 C18.69270094 68.6019569 18.70961418 73.14369033 18.732831 77.68576527 C18.74766043 81.2093894 18.74842751 84.73291718 18.74532127 88.256567 C18.74583005 89.92968237 18.75098308 91.60280378 18.76113319 93.27588844 C18.83586039 107.31626208 17.58579895 118.83920652 9.3828125 130.71484375 C8.8053125 131.60171875 8.2278125 132.48859375 7.6328125 133.40234375 C-0.75749307 142.02571337 -10.64000629 146.73916486 -22.60839844 147.18530273 C-34.8870674 147.32988418 -44.24270746 144.95241876 -53.6171875 136.71484375 C-54.22304687 136.21339844 -54.82890625 135.71195313 -55.453125 135.1953125 C-64.23533458 127.31433403 -67.28333603 117.08517764 -68.6171875 105.71484375 C-68.89093316 100.2010722 -68.8997603 94.69909786 -68.8828125 89.1796875 C-68.88416394 87.60893189 -68.88610844 86.03817669 -68.88861084 84.46742249 C-68.89153873 81.19560718 -68.88733988 77.92390199 -68.87792969 74.65209961 C-68.86652704 70.48779264 -68.87311467 66.32374335 -68.88507462 62.15944576 C-68.89234869 58.92238979 -68.88998017 55.68539355 -68.88481903 52.44833565 C-68.88349832 50.913956 -68.88507394 49.37957068 -68.88977814 47.84519768 C-68.93116361 30.56216438 -66.92435633 16.83087112 -54.875 3.8359375 C-39.88385975 -10.56426569 -16.91632589 -10.84447851 0 0 Z M-46.28125 21.8046875 C-50.61915421 28.00712948 -50.73827136 35.22002691 -50.76245117 42.59301758 C-50.76580978 43.24121964 -50.7691684 43.88942169 -50.77262878 44.55726624 C-50.78204927 46.67882253 -50.78407741 48.80029915 -50.78515625 50.921875 C-50.78837515 52.41249116 -50.79173968 53.90310701 -50.79524231 55.39372253 C-50.80121144 58.51126843 -50.80308451 61.62878669 -50.80249023 64.74633789 C-50.80238877 68.71693855 -50.81603469 72.68735976 -50.83326244 76.65791798 C-50.84444856 79.7353749 -50.84640742 82.81278935 -50.84588051 85.89026451 C-50.84705092 87.35290838 -50.85141918 88.81555369 -50.85921288 90.27817726 C-51.25162949 106.00393593 -51.25162949 106.00393593 -44.6171875 119.71484375 C-38.61143938 125.67022921 -34.00548049 128.98564264 -25.3046875 129.08984375 C-17.86853755 128.96380731 -13.5523477 127.17218717 -7.9296875 122.46484375 C-1.63462393 114.97882221 0.48361896 109.36126265 0.55981445 99.52880859 C0.56638565 98.82398346 0.57295685 98.11915833 0.57972717 97.39297485 C0.59936411 95.07057568 0.61110331 92.74824099 0.62109375 90.42578125 C0.62516928 89.62768665 0.6292448 88.82959206 0.63344383 88.00731277 C0.65426708 83.78010573 0.66858304 79.55293075 0.67797852 75.32568359 C0.68901492 70.98503419 0.72339321 66.64490134 0.76315022 62.30443382 C0.78944448 58.94470341 0.79768179 55.58509354 0.80125999 52.22526932 C0.80609558 50.62665965 0.81762188 49.02805424 0.83629799 47.42954636 C0.95458078 36.63166491 0.72346822 26.28649298 -6.8046875 17.77734375 C-13.01580356 12.29151725 -19.55297359 9.9138079 -27.84765625 10.2734375 C-35.74379934 11.53192011 -41.37732072 15.64599698 -46.28125 21.8046875 Z " fill="#000000" transform="translate(178.6171875,220.28515625)"/>
<path d="M0 0 C2.0625 1.625 2.0625 1.625 3.0625 3.625 C3.74626068 10.57656695 3.74626068 10.57656695 1.1875 14.5 C-2.44899706 16.972818 -5.2972228 17.47986533 -9.5703125 18.18359375 C-12.65494049 18.75878016 -14.54311067 19.58272675 -16.9375 21.625 C-20.58834199 26.97817291 -21.5154766 30.70153369 -21.41992188 37.10791016 C-21.42383438 37.9268576 -21.42774689 38.74580505 -21.43177795 39.58956909 C-21.437729 41.35790873 -21.43462639 43.12629763 -21.4233551 44.89461136 C-21.40599659 47.70509238 -21.4136552 50.51455324 -21.4276123 53.32504272 C-21.45716975 60.30810035 -21.44413223 67.29095992 -21.43243408 74.27404785 C-21.42418212 80.17503962 -21.43237497 86.07558408 -21.46156311 91.97651291 C-21.46858506 94.72451491 -21.45206756 97.47169771 -21.43444824 100.21963501 C-21.43566058 111.43293809 -21.6025463 122.90225209 -29.1875 131.9375 C-30.095 132.824375 -31.0025 133.71125 -31.9375 134.625 C-30.06160675 138.55716086 -27.73400564 142.14041626 -25.375 145.796875 C-22.16528716 152.11163614 -21.64615234 158.35620653 -21.69799805 165.30078125 C-21.69598389 166.12790619 -21.69396973 166.95503113 -21.69189453 167.80722046 C-21.68837038 169.58919949 -21.68908954 171.37119109 -21.69367027 173.15316772 C-21.69930138 175.97896587 -21.69004378 178.80435935 -21.6764679 181.63012695 C-21.63949232 189.65936193 -21.6208034 197.68845551 -21.63208008 205.71777344 C-21.63794549 210.6420253 -21.61960697 215.56570291 -21.58619118 220.48983765 C-21.57826382 222.35881953 -21.57947783 224.22786443 -21.59021568 226.09683228 C-21.60461567 228.71492595 -21.58819991 231.3312231 -21.56518555 233.94921875 C-21.57695328 234.7120517 -21.58872101 235.47488464 -21.60084534 236.26083374 C-21.50120612 242.07220435 -19.63206222 246.13690956 -15.9375 250.625 C-12.49511306 252.972082 -9.33193799 253.77838013 -5.3125 254.5625 C-2.46147712 255.16347447 -0.8782731 255.66255852 1.625 257.25 C3.7055872 260.6874919 3.89916215 263.78396012 3.0625 267.625 C1.25 270.625 1.25 270.625 -1.9375 272.625 C-11.13215687 274.4821989 -19.61072367 271.07173762 -27.26171875 266.12109375 C-33.65908364 261.06412913 -38.24897319 253.62570052 -39.9375 245.625 C-40.03533505 242.84568868 -40.0812139 240.0908202 -40.0793457 237.31152344 C-40.08455734 236.05708183 -40.08455734 236.05708183 -40.08987427 234.77729797 C-40.09721887 232.96305758 -40.10257115 231.14880828 -40.10616493 229.33455658 C-40.11334525 226.45874294 -40.1290241 223.58309845 -40.14750671 220.70733643 C-40.19989888 212.53131442 -40.24793306 204.35538546 -40.26342773 196.17919922 C-40.2735316 191.17530045 -40.30291687 186.17182835 -40.34474754 181.16809845 C-40.35702789 179.26564008 -40.36218424 177.36312138 -40.35994911 175.46062469 C-40.35758556 172.79197461 -40.37984178 170.12453998 -40.4074707 167.45605469 C-40.40086929 166.67758682 -40.39426788 165.89911896 -40.38746643 165.09706116 C-40.48132336 159.54703107 -41.8513168 155.26946815 -44.9375 150.625 C-48.55305538 147.36218173 -51.93166146 146.30975381 -56.5625 145.1875 C-60.06701253 144.28988644 -61.81174887 143.7250293 -64.6875 141.4375 C-66.41820396 137.54341609 -66.34923956 134.63333195 -64.9375 130.625 C-62.05147845 127.08729616 -59.39051147 126.43510379 -55.0625 125.75 C-49.82675656 124.85914216 -46.16426465 122.91513027 -42.9375 118.625 C-40.92926244 113.77875742 -40.65989093 109.32091423 -40.69799805 104.14794922 C-40.69598389 103.31778793 -40.69396973 102.48762665 -40.69189453 101.63230896 C-40.68836055 99.83666186 -40.68910186 98.04100228 -40.69367027 96.24535751 C-40.69929022 93.39341793 -40.69005937 90.54188107 -40.6764679 87.68997192 C-40.63946281 79.58366117 -40.62075446 71.47748673 -40.63208008 63.37109375 C-40.63796654 58.40374553 -40.61949786 53.4369632 -40.58619118 48.46973038 C-40.57829045 46.58730782 -40.57944101 44.7048227 -40.59021568 42.8224144 C-40.65798396 30.44551592 -39.67710513 21.013208 -32.8125 10.3125 C-24.45269999 2.49790434 -11.61287984 -5.4358161 0 0 Z " fill="#000000" transform="translate(107.9375,154.375)"/>
<path d="M0 0 C9.99960507 4.24454535 15.90722993 10.88046391 20.14025879 20.70518494 C21.78597392 25.16517999 22.00818728 29.16371829 21.97070312 33.88110352 C21.9760759 34.71958832 21.98144867 35.55807312 21.98698425 36.42196655 C21.99670999 38.22848277 21.99972228 40.03504541 21.99662781 41.84158516 C21.99212311 44.70499354 22.00622361 47.56779261 22.02502441 50.43113708 C22.06789654 57.53853356 22.07904644 64.64591489 22.09124756 71.75341797 C22.10279474 77.77080718 22.12640397 83.78791678 22.16593933 89.80518913 C22.17946919 92.61866539 22.1753469 95.43175872 22.17053223 98.24525452 C22.17987589 99.97804242 22.19004548 101.71082614 22.20117188 103.44360352 C22.19502365 104.21938248 22.18887543 104.99516144 22.18254089 105.79444885 C22.25492368 112.23700602 23.64546021 116.90839982 28.0234375 121.84765625 C31.80206145 124.76750203 36.2771717 125.43281357 40.87890625 126.32421875 C43.74585429 127.14334676 44.85880981 127.704512 46.5859375 130.09765625 C48.25458207 136.99472048 48.25458207 136.99472048 45.9921875 140.7265625 C43.11354188 143.56314999 41.04390405 144.1919189 37.1484375 145.16015625 C32.34508064 146.36795282 29.09798565 147.52536714 25.5859375 151.09765625 C22.77938894 156.48079945 22.15695837 160.7061795 22.21704102 166.7199707 C22.21327454 167.5534906 22.20950806 168.3870105 22.20562744 169.24578857 C22.199221 171.04523409 22.19950043 172.84471347 22.20581245 174.64415932 C22.21496872 177.4999138 22.20464641 180.35501806 22.18919373 183.21073914 C22.14922472 191.32627414 22.14788632 199.44175593 22.15014648 207.55737305 C22.15019779 212.53227074 22.13092714 217.50681753 22.10081291 222.48161888 C22.09005402 225.28122148 22.10207911 228.08013515 22.11463928 230.87971497 C22.08944843 243.37697977 20.67840871 253.72293538 11.5859375 263.09765625 C3.8797855 269.40268971 -3.88482582 272.83821414 -13.9140625 272.50390625 C-16.4140625 272.09765625 -16.4140625 272.09765625 -19.6015625 270.09765625 C-22.11949256 265.93004787 -22.10337878 263.92287024 -21.4140625 259.09765625 C-18.64647502 255.59204544 -16.35038553 254.51547292 -12.0390625 253.59765625 C-6.32490476 252.17292625 -2.03037204 250.68289325 1.21813965 245.48699951 C2.84085614 241.46597902 3.0048864 237.9444183 2.97070312 233.68066406 C2.9760759 232.85704376 2.98144867 232.03342346 2.98698425 231.18484497 C2.99673479 229.40394683 2.99971467 227.62300132 2.99662781 225.84207916 C2.99213187 223.01580855 3.00620185 220.19015823 3.02502441 217.36395264 C3.06174531 211.35853054 3.0754975 205.35317404 3.0859375 199.34765625 C3.098049 192.39844132 3.11978051 185.44952947 3.16593933 178.50045013 C3.17942473 175.72977 3.17535345 172.95948133 3.17053223 170.18878174 C3.23435784 149.77997038 3.23435784 149.77997038 9.7734375 141.22265625 C12.24506949 137.96322915 12.5859375 137.43522646 12.5859375 133.09765625 C11.3859755 131.27709498 11.3859755 131.27709498 9.7734375 129.53515625 C2.45601795 120.10868945 3.16523963 108.58504875 3.20581245 97.22173309 C3.21501605 94.40428712 3.20459668 91.58749342 3.18919373 88.77008057 C3.14933285 80.76827837 3.14789642 72.76653353 3.15014648 64.76464844 C3.15019765 59.84998912 3.13100876 54.9356871 3.10081291 50.02112579 C3.09002706 47.25405956 3.10208896 44.48768564 3.11463928 41.72064209 C3.10573337 40.01785607 3.09565847 38.31507563 3.08422852 36.61230469 C3.09884377 35.46973206 3.09884377 35.46973206 3.11375427 34.30407715 C3.04065202 28.82871085 1.67230422 25.63318161 -1.4140625 21.09765625 C-3.14255329 19.55344683 -3.14255329 19.55344683 -5.1015625 18.78515625 C-5.78992188 18.47964844 -6.47828125 18.17414063 -7.1875 17.859375 C-9.5221754 17.06067026 -11.80406726 16.55927179 -14.2265625 16.09765625 C-16.98485821 15.53648574 -18.23197874 15.24111618 -20.4765625 13.47265625 C-21.85679067 9.97607823 -22.12076776 6.79836015 -21.4140625 3.09765625 C-15.87189419 -4.10716256 -7.78635084 -2.57548528 0 0 Z " fill="#000000" transform="translate(422.4140625,154.90234375)"/>
<path d="M0 0 C0.86205048 -0.01283524 1.72410095 -0.02567047 2.61227417 -0.03889465 C3.54862701 -0.04628159 4.48497986 -0.05366852 5.44970703 -0.0612793 C6.41723907 -0.06935104 7.38477112 -0.07742279 8.38162231 -0.08573914 C10.4378276 -0.09959374 12.49405601 -0.11030971 14.55029297 -0.11816406 C17.6604561 -0.13523966 20.76951763 -0.17909619 23.87939453 -0.22338867 C39.43220747 -0.34573266 52.28328006 1.00224246 64.02392578 12.2824707 C68.29083719 16.84798734 71.49232158 21.38222608 73.83251953 27.17700195 C74.42033203 28.63106445 74.42033203 28.63106445 75.02001953 30.11450195 C78.92681552 44.8401176 77.72380645 61.09979368 70.45361328 74.48950195 C64.38795331 84.54534307 55.05671361 90.80974373 43.83251953 94.17700195 C39.11066551 94.98549307 34.59204768 95.29593319 29.80517578 95.2746582 C28.51933594 95.27143555 27.23349609 95.26821289 25.90869141 95.26489258 C24.57080008 95.25653997 23.23290946 95.24807506 21.89501953 95.23950195 C20.52978679 95.23447854 19.16455227 95.22991712 17.79931641 95.22583008 C14.47700496 95.21409046 11.15478545 95.19766874 7.83251953 95.17700195 C7.84362259 95.84241501 7.85472565 96.50782806 7.86616516 97.19340515 C7.97679612 104.12001115 8.05220292 111.04636613 8.10717773 117.97363281 C8.13231954 120.55869745 8.16643768 123.14369102 8.2097168 125.72851562 C8.27037875 129.44459569 8.29873373 133.15973581 8.32080078 136.8762207 C8.34660721 138.03159836 8.37241364 139.18697601 8.39900208 140.37736511 C8.40212633 149.31809919 8.40212633 149.31809919 5.43310547 152.40649414 C1.40420107 155.14941703 -0.37285897 154.86194788 -5.16748047 154.17700195 C-7.59867669 152.30685101 -8.80817219 150.8956185 -10.16748047 148.17700195 C-10.26959344 146.31324155 -10.30697294 144.44580924 -10.31465149 142.57926941 C-10.32180679 141.388936 -10.3289621 140.1986026 -10.33633423 138.97219849 C-10.33902313 137.65943939 -10.34171204 136.3466803 -10.34448242 134.99414062 C-10.35074627 133.60295949 -10.357393 132.21178003 -10.36439514 130.82060242 C-10.38181184 127.03538771 -10.39235868 123.25018564 -10.40060067 119.46494079 C-10.40574934 117.10065666 -10.41182512 114.73637646 -10.4181118 112.37209511 C-10.43716562 104.97654772 -10.45139644 97.58101033 -10.45972377 90.1854431 C-10.46949841 81.64522973 -10.49582286 73.10527539 -10.53622466 64.5651533 C-10.56637234 57.96636107 -10.58119134 51.36764316 -10.58450478 44.76878339 C-10.58685679 40.82651969 -10.59583642 36.88453266 -10.62096596 32.94234276 C-10.64422847 29.23307964 -10.64848758 25.5242757 -10.63820457 21.81495857 C-10.63747232 19.80606282 -10.65657633 17.79719047 -10.67626953 15.78839111 C-10.66932571 14.58959824 -10.6623819 13.39080536 -10.65522766 12.15568542 C-10.65881019 10.59576008 -10.65881019 10.59576008 -10.6624651 9.0043211 C-10.03860388 5.44086748 -8.6434387 3.7644531 -6.16748047 1.17700195 C-3.87761082 0.03206713 -2.54690288 0.03304264 0 0 Z M7.83251953 18.17700195 C7.83251953 37.64700195 7.83251953 57.11700195 7.83251953 77.17700195 C31.18274751 78.72395396 31.18274751 78.72395396 51.03955078 70.04418945 C57.18558707 63.64374207 58.59931529 55.91882143 59.02001953 47.36450195 C58.82903333 38.38815054 57.03648233 31.82851431 50.83251953 25.17700195 C45.02284895 19.6652632 39.24784665 17.78593979 31.36767578 17.8840332 C30.12638916 17.89152588 28.88510254 17.89901855 27.60620117 17.90673828 C26.05151123 17.93405029 24.49682129 17.9613623 22.89501953 17.98950195 C15.43908203 18.08231445 15.43908203 18.08231445 7.83251953 18.17700195 Z " fill="#000000" transform="translate(325.16748046875,212.822998046875)"/>
<path d="M0 0 C1.16478378 -0.01583633 2.32956757 -0.03167267 3.52964783 -0.04798889 C4.78387039 -0.04302902 6.03809296 -0.03806915 7.33032227 -0.03295898 C9.268395 -0.04225685 9.268395 -0.04225685 11.24562073 -0.05174255 C13.97854444 -0.06214113 16.71094732 -0.05759469 19.44384766 -0.04296875 C22.93913677 -0.02579013 26.43278053 -0.04926355 29.92788601 -0.08445835 C33.27046105 -0.11175532 36.61264094 -0.10169438 39.95532227 -0.09545898 C41.83361977 -0.1153463 41.83361977 -0.1153463 43.74986267 -0.13563538 C53.40172209 -0.03206135 53.40172209 -0.03206135 56.49829102 2.94165039 C59.1625977 6.97764921 58.88988854 8.76882708 58.20922852 13.53344727 C56.00182171 16.50202883 54.72325479 17.36210517 51.20922852 18.53344727 C49.44138073 18.63624911 47.66995896 18.68192372 45.89916992 18.69458008 C44.81439362 18.70418762 43.72961731 18.71379517 42.61196899 18.72369385 C41.44008026 18.72794373 40.26819153 18.7321936 39.06079102 18.73657227 C37.85611176 18.74227234 36.6514325 18.74797241 35.4102478 18.75384521 C32.85985188 18.76329732 30.30944373 18.76983003 27.7590332 18.77368164 C23.85679854 18.78339111 19.95508962 18.81441505 16.05297852 18.84594727 C13.57641915 18.85247691 11.09985601 18.85772753 8.62329102 18.86157227 C6.87153061 18.88009247 6.87153061 18.88009247 5.0843811 18.89898682 C3.99330048 18.89598572 2.90221985 18.89298462 1.77807617 18.88989258 C0.82115875 18.89353821 -0.13575867 18.89718384 -1.12167358 18.90093994 C-4.96834392 18.37131412 -7.76001446 16.84531984 -10.16577148 13.78344727 C-11.1077495 10.3923264 -10.63829348 7.92353523 -9.79077148 4.53344727 C-6.80908367 0.68399871 -4.79892716 0.02904465 0 0 Z " fill="#000000" transform="translate(419.790771484375,33.466552734375)"/>
<path d="M0 0 C0.75474609 -0.01095703 1.50949219 -0.02191406 2.28710938 -0.03320312 C5.86321082 0.01405813 8.01483096 0.24482944 10.90625 2.41796875 C12.92522484 5.24556362 13.367991 7.08705013 13.4375 10.5625 C12.30586199 13.65961456 11.50758381 15.84178145 8.7265625 17.71484375 C5.73776317 18.82161756 3.18311074 18.86396031 0 18.875 C-1.66869141 18.90013672 -1.66869141 18.90013672 -3.37109375 18.92578125 C-6.91074621 18.52285875 -8.73449023 17.69223576 -11.5625 15.5625 C-14.06281654 11.81202518 -14.09853554 10.00393734 -13.5625 5.5625 C-9.56812586 0.16617886 -6.26729725 -0.19904721 0 0 Z " fill="#000000" transform="translate(132.5625,33.4375)"/>
<path d="M0 0 C1.13888672 -0.02320313 1.13888672 -0.02320313 2.30078125 -0.046875 C6.01261127 -0.02087269 7.91844872 0.07279408 10.97265625 2.31640625 C13.13535167 5.40834165 13.43422458 7.75080092 13.5 11.5 C12.30314094 14.33466619 11.37148273 15.93094963 8.7890625 17.6171875 C5.79749532 18.77093184 3.26394819 18.80139671 0.0625 18.8125 C-1.60619141 18.83763672 -1.60619141 18.83763672 -3.30859375 18.86328125 C-6.82001735 18.46357208 -8.66881565 17.56874691 -11.5 15.5 C-13.60101595 12.8259797 -13.49846976 11.45715315 -13.375 8 C-11.44870191 0.29480763 -7.04167299 -0.14346363 0 0 Z " fill="#000000" transform="translate(89.5,33.5)"/>
<path d="M0 0 C0.69867188 -0.01933594 1.39734375 -0.03867187 2.1171875 -0.05859375 C6.01389781 -0.02183233 7.85862261 0.51603324 10.96484375 2.91015625 C14.01403627 6.97769713 13.71046028 8.65177804 13 13.625 C10.79259319 16.59358157 9.51402627 17.45365791 6 18.625 C4.04524991 18.7697963 2.0848862 18.84567502 0.125 18.875 C-1.41800781 18.91367187 -1.41800781 18.91367187 -2.9921875 18.953125 C-7.36157798 18.47646422 -9.9371613 16.6878387 -13 13.625 C-13.79544584 6.6932577 -13.79544584 6.6932577 -10.97265625 2.90234375 C-7.2880826 0.07960205 -4.46431076 -0.12355104 0 0 Z " fill="#000000" transform="translate(47,33.375)"/>
</svg>
