<?xml version="1.0" encoding="UTF-8"?>
<svg version="1.1" xmlns="http://www.w3.org/2000/svg" width="512" height="512">
<path d="M0 0 C1.56709428 -0.00418037 3.13418553 -0.00966172 4.70127124 -0.01631981 C8.97785904 -0.03070113 13.25425292 -0.02655273 17.53085101 -0.019153 C22.1547102 -0.01440538 26.7785284 -0.02694527 31.40237427 -0.03717041 C40.44963553 -0.05433297 49.49682725 -0.05520365 58.54410056 -0.04995751 C65.90114914 -0.0459096 73.25817723 -0.04736673 80.61522484 -0.05270576 C82.18824566 -0.0538284 82.18824566 -0.0538284 83.79304468 -0.05497371 C85.92372031 -0.05650525 88.05439593 -0.0580436 90.18507155 -0.05958868 C110.14928739 -0.07330468 130.113464 -0.0678825 150.07767894 -0.05640347 C168.32182578 -0.04647348 186.56587117 -0.05940933 204.81000236 -0.08333766 C223.56528106 -0.10775011 242.32051254 -0.11733116 261.0758068 -0.11068493 C271.59656613 -0.1071973 282.11724748 -0.10939457 292.63799477 -0.12693596 C301.59463217 -0.14168484 310.55113666 -0.14225838 319.50777153 -0.12486505 C324.0727221 -0.11637452 328.63743553 -0.11415761 333.2023735 -0.1295166 C337.39034126 -0.14343217 341.57787025 -0.13851322 345.76581308 -0.11927737 C347.27176659 -0.11553795 348.77775584 -0.11837916 350.28367732 -0.12888902 C363.47170178 -0.21430196 375.84856621 1.92943144 387.60661316 8.20018005 C388.27450867 8.547099 388.94240417 8.89401794 389.63053894 9.25144958 C394.97795054 12.10140794 399.7435109 15.29682978 404.23161316 19.38768005 C405.05016785 20.1147113 405.86872253 20.84174255 406.71208191 21.59080505 C419.86756592 33.93029082 429.09197232 51.83684467 430.51225746 69.97092211 C430.61926313 74.03550645 430.63709173 78.09057192 430.61929321 82.15606689 C430.62347358 83.72316117 430.62895493 85.29025242 430.63561302 86.85733813 C430.64999434 91.13392593 430.64584594 95.41031981 430.63844621 99.6869179 C430.63369859 104.31077709 430.64623848 108.93459529 430.65646362 113.55844116 C430.67362618 122.60570242 430.67449686 131.65289415 430.66925072 140.70016745 C430.66520281 148.05721603 430.66665995 155.41424413 430.67199898 162.77129173 C430.6727474 163.81997228 430.67349582 164.86865283 430.67426692 165.94911158 C430.67579847 168.0797872 430.67733681 170.21046283 430.67888189 172.34113844 C430.6925979 192.30535428 430.68717571 212.2695309 430.67569668 232.23374584 C430.66576669 250.47789268 430.67870254 268.72193806 430.70263087 286.96606926 C430.72704332 305.72134795 430.73662437 324.47657943 430.72997814 343.23187369 C430.72649051 353.75263303 430.72868778 364.27331438 430.74622917 374.79406166 C430.76097805 383.75069906 430.7615516 392.70720356 430.74415826 401.66383842 C430.73566774 406.228789 430.73345082 410.79350242 430.74880981 415.3584404 C430.76272538 419.54640816 430.75780643 423.73393715 430.73857058 427.92187997 C430.73483117 429.42783348 430.73767237 430.93382273 430.74818223 432.43974421 C430.83359517 445.62776868 428.68986177 458.0046331 422.41911316 469.76268005 C421.89873474 470.76452332 421.89873474 470.76452332 421.36784363 471.78660583 C418.51788527 477.13401743 415.32246343 481.89957779 411.23161316 486.38768005 C410.50458191 487.20623474 409.77755066 488.02478943 409.02848816 488.8681488 C396.6890024 502.02363282 378.78244854 511.24803922 360.6483711 512.66832435 C356.58378676 512.77533003 352.5287213 512.79315862 348.46322632 512.77536011 C346.89613204 512.77954047 345.32904079 512.78502183 343.76195508 512.79167992 C339.48536728 512.80606123 335.2089734 512.80191284 330.93237531 512.79451311 C326.30851612 512.78976549 321.68469792 512.80230538 317.06085205 512.81253052 C308.01359079 512.82969307 298.96639906 512.83056376 289.91912576 512.82531761 C282.56207718 512.82126971 275.20504909 512.82272684 267.84800148 512.82806587 C266.27498066 512.82918851 266.27498066 512.82918851 264.67018164 512.83033382 C262.53950601 512.83186536 260.40883039 512.83340371 258.27815477 512.83494879 C238.31393893 512.84866479 218.34976232 512.8432426 198.38554738 512.83176357 C180.14140054 512.82183359 161.89735515 512.83476944 143.65322395 512.85869776 C124.89794526 512.88311022 106.14271378 512.89269127 87.38741952 512.88604504 C76.86666019 512.88255741 66.34597884 512.88475468 55.82523155 512.90229607 C46.86859415 512.91704494 37.91208966 512.91761849 28.95545479 512.90022516 C24.39050422 512.89173463 19.82579079 512.88951772 15.26085281 512.90487671 C11.07288505 512.91879228 6.88535606 512.91387332 2.69741324 512.89463747 C1.19145973 512.89089806 -0.31452952 512.89373927 -1.820451 512.90424912 C-15.00847546 512.98966207 -27.38533989 510.84592867 -39.14338684 504.57518005 C-39.81128235 504.22826111 -40.47917786 503.88134216 -41.16731262 503.52391052 C-46.51472422 500.67395217 -51.28028458 497.47853033 -55.76838684 493.38768005 C-56.58694153 492.6606488 -57.40549622 491.93361755 -58.24885559 491.18455505 C-71.4043396 478.84506929 -80.628746 460.93851544 -82.04903114 442.80443799 C-82.15603681 438.73985365 -82.17386541 434.68478819 -82.15606689 430.61929321 C-82.16024726 429.05219893 -82.16572861 427.48510769 -82.17238671 425.91802198 C-82.18676802 421.64143418 -82.18261962 417.36504029 -82.17521989 413.08844221 C-82.17047228 408.46458301 -82.18301216 403.84076482 -82.1932373 399.21691895 C-82.21039986 390.16965769 -82.21127055 381.12246596 -82.2060244 372.07519265 C-82.20197649 364.71814407 -82.20343363 357.36111598 -82.20877266 350.00406837 C-82.20952108 348.95538783 -82.2102695 347.90670728 -82.2110406 346.82624853 C-82.21257215 344.6955729 -82.21411049 342.56489728 -82.21565557 340.43422166 C-82.22937158 320.47000582 -82.22394939 300.50582921 -82.21247036 280.54161427 C-82.20254037 262.29746743 -82.21547622 244.05342204 -82.23940455 225.80929085 C-82.26381701 207.05401216 -82.27339805 188.29878067 -82.26675183 169.54348642 C-82.26326419 159.02272708 -82.26546147 148.50204573 -82.28300285 137.98129845 C-82.29775173 129.02466105 -82.29832528 120.06815655 -82.28093194 111.11152168 C-82.27244142 106.54657111 -82.27022451 101.98185768 -82.2855835 97.41691971 C-82.29949907 93.22895195 -82.29458011 89.04142296 -82.27534426 84.85348014 C-82.27160485 83.34752663 -82.27444606 81.84153738 -82.28495591 80.3356159 C-82.37036885 67.14759143 -80.22663545 54.770727 -73.95588684 43.01268005 C-73.6089679 42.34478455 -73.26204895 41.67688904 -72.90461731 40.98875427 C-70.05465895 35.64134268 -66.85923711 30.87578232 -62.76838684 26.38768005 C-62.04135559 25.56912537 -61.31432434 24.75057068 -60.56526184 23.9072113 C-44.3870762 6.6591779 -23.06772534 -0.10098925 0 0 Z " fill="#FFA124" transform="translate(81.76838684082031,-0.3876800537109375)"/>
<path d="M0 0 C17.81786893 14.28528274 25.65354702 39.39063798 31.86669922 60.49511719 C32.92962756 64.03742475 34.04038744 67.56395765 35.15625 71.08984375 C42.76502637 95.16050407 42.76502637 95.16050407 45.37109375 104.92578125 C47.48877114 112.86090991 50.09543633 120.60942584 52.72827148 128.38671875 C55.16020709 135.59347524 57.43858604 142.83021663 59.57983398 150.12841797 C62.45509114 159.92534928 65.55548753 169.65363435 68.6264801 179.39056396 C76.84164397 205.44230581 76.84164397 205.44230581 79.37109375 214.92578125 C81.77894724 223.92962211 84.7631559 232.73032015 87.765625 241.55078125 C89.02256372 245.24503567 90.23317757 248.94677321 91.3828125 252.67578125 C94.87229279 265.30863278 94.87229279 265.30863278 103.57324219 274.48852539 C105.89220067 275.48880422 107.49336313 275.69141894 110.00390625 275.734375 C110.79410156 275.75951172 111.58429688 275.78464844 112.3984375 275.81054688 C114.05460568 275.845868 115.71086631 275.87708033 117.3671875 275.90429688 C118.15480469 275.93072266 118.94242188 275.95714844 119.75390625 275.984375 C120.4720752 275.99782959 121.19024414 276.01128418 121.93017578 276.02514648 C123.74609375 276.42578125 123.74609375 276.42578125 125.74609375 279.42578125 C126.17528042 282.70285993 126.07033697 285.99858674 126.05859375 289.30078125 C126.07470703 290.19925781 126.09082031 291.09773438 126.10742188 292.0234375 C126.11105749 296.94606606 126.0413073 300.48398916 122.74609375 304.42578125 C113.09789771 310.56554236 98.23111567 309.6813309 87.30859375 307.30078125 C76.86788432 304.25911116 69.28753037 297.61566293 63.93359375 288.2578125 C57.44638723 275.66088778 53.13936724 262.68399462 49.34375 249.08203125 C47.74705762 243.37941722 46.04240346 237.71301718 44.30859375 232.05078125 C44.01686279 231.09727783 43.72513184 230.14377441 43.42456055 229.16137695 C42.8307536 227.22282465 42.23643239 225.28442979 41.64160156 223.34619141 C40.14909701 218.47886876 38.66614472 213.6086433 37.18359375 208.73828125 C36.89234619 207.78195801 36.60109863 206.82563477 36.30102539 205.84033203 C34.18873509 198.89800499 32.09871092 191.94920586 30.01977539 184.99682617 C28.07706596 178.50756976 26.10075179 172.02884689 24.12109375 165.55078125 C21.57097462 157.20044571 19.09270606 148.83568995 16.74609375 140.42578125 C14.60491528 142.56695972 14.1402433 143.73983201 13.1965332 146.56030273 C12.90413254 147.42415588 12.61173187 148.28800903 12.31047058 149.17803955 C11.99660904 150.12475525 11.6827475 151.07147095 11.359375 152.046875 C10.85927666 153.53063629 10.85927666 153.53063629 10.34907532 155.04437256 C9.6267239 157.18909162 8.90697753 159.33468941 8.18951416 161.48104858 C6.26641166 167.23245253 4.32339365 172.97713133 2.3828125 178.72265625 C1.98920532 179.88963547 1.59559814 181.05661469 1.19006348 182.25895691 C-2.34727665 192.73480266 -5.9699026 203.17940856 -9.62890625 213.61328125 C-13.86654221 225.70055132 -18.07668797 237.7964542 -22.23828125 249.91015625 C-23.09976545 252.41512274 -23.96125633 254.92008694 -24.82275391 257.42504883 C-26.08927763 261.10829923 -27.35450545 264.79196683 -28.61541748 268.47714233 C-29.78575384 271.89740816 -30.96084561 275.31600944 -32.13671875 278.734375 C-32.64993683 280.24115814 -32.64993683 280.24115814 -33.17352295 281.77838135 C-34.1715793 284.67209727 -35.20498907 287.55013864 -36.25390625 290.42578125 C-36.63577087 291.51102081 -37.0176355 292.59626038 -37.41107178 293.71438599 C-40.4619508 301.81898159 -40.4619508 301.81898159 -44.15795898 304.65087891 C-47.47917475 305.48216499 -50.36396176 305.81377561 -53.7890625 305.82421875 C-55.01044922 305.82808594 -56.23183594 305.83195312 -57.49023438 305.8359375 C-58.75287109 305.82433594 -60.01550781 305.81273437 -61.31640625 305.80078125 C-62.58291016 305.81238281 -63.84941406 305.82398438 -65.15429688 305.8359375 C-66.37439453 305.83207031 -67.59449219 305.82820313 -68.8515625 305.82421875 C-69.96023682 305.82083496 -71.06891113 305.81745117 -72.21118164 305.81396484 C-75.78494324 305.35803281 -77.6113977 304.91129389 -80.25390625 302.42578125 C-81.35703366 295.47549692 -78.90547545 289.84210558 -76.36328125 283.44140625 C-75.95184875 282.37412292 -75.54041626 281.3068396 -75.11651611 280.20721436 C-73.75804111 276.69178975 -72.38095548 273.18396684 -71.00390625 269.67578125 C-70.04294748 267.19841709 -69.08312378 264.72064608 -68.125 262.2421875 C-66.14713116 257.13065857 -64.1613249 252.02228594 -62.16992188 246.91601562 C-58.23517841 236.82368161 -54.35475111 226.71053944 -50.47241211 216.59796143 C-49.24545079 213.40376884 -48.01660109 210.21030923 -46.78710938 207.01708984 C-42.47696988 195.82219346 -38.17738265 184.62333566 -33.89453125 173.41796875 C-33.44796173 172.24962494 -33.00139221 171.08128113 -32.54129028 169.87753296 C-30.31500995 164.05016965 -28.09259908 158.22136645 -25.87646484 152.39013672 C-22.14132685 142.56733269 -18.39813577 132.7497803 -14.53759766 122.97543335 C-12.99996257 119.08045418 -11.47556884 115.18035549 -9.95202637 111.27984619 C-9.2463238 109.48516532 -8.53370108 107.69318749 -7.81359863 105.90423584 C-6.83084904 103.46219008 -5.87212701 101.01192315 -4.91796875 98.55859375 C-4.62957123 97.86115051 -4.34117371 97.16370728 -4.04403687 96.44512939 C-1.00297075 88.46811493 -2.98455783 81.26152556 -5.6953125 73.453125 C-6.0642588 72.3638546 -6.0642588 72.3638546 -6.44065857 71.25257874 C-6.96141072 69.72416886 -7.48687019 68.19735535 -8.0168457 66.67211914 C-8.80451195 64.39762764 -9.57015922 62.11657528 -10.33398438 59.83398438 C-12.91793685 52.23723601 -15.7861935 44.84474423 -19.28125 37.6171875 C-19.58744766 36.96523911 -19.89364532 36.31329071 -20.2091217 35.6415863 C-23.13499452 29.82798534 -26.83192745 26.80298488 -32.44140625 23.61328125 C-40.96670846 20.95785925 -48.741438 22.49696989 -57.2109375 24.76953125 C-60.31826982 25.43966197 -63.08562047 25.53944173 -66.25390625 25.42578125 C-68.6949626 21.67701615 -68.55175728 17.93183654 -68.50390625 13.61328125 C-68.51164063 12.92685547 -68.519375 12.24042969 -68.52734375 11.53320312 C-68.50555844 5.77643626 -68.21759922 0.43736917 -64.01171875 -3.87109375 C-46.19903855 -14.87155914 -16.64636876 -11.62649326 0 0 Z " fill="#FFFEFD" transform="translate(233.25390625,106.57421875)"/>
</svg>
