<?xml version="1.0" encoding="UTF-8"?>
<svg version="1.1" xmlns="http://www.w3.org/2000/svg" width="475" height="475">
<path d="M0 0 C4.93875367 2.42278482 6.98994752 4.92197269 9 10 C10.00234262 13.26457423 10.16521456 16.27782809 10.1875 19.6875 C10.20167969 20.66074219 10.21585937 21.63398438 10.23046875 22.63671875 C9.93937813 26.88466831 9.01774394 30.87424484 8 35 C8.60996826 34.84329834 9.21993652 34.68659668 9.84838867 34.52514648 C12.62543102 33.81828696 15.40628926 33.12776758 18.1875 32.4375 C19.62706055 32.0672168 19.62706055 32.0672168 21.09570312 31.68945312 C22.02705078 31.46064453 22.95839844 31.23183594 23.91796875 30.99609375 C24.77156982 30.78138428 25.6251709 30.5666748 26.50463867 30.34545898 C29.30808017 29.95734924 31.29866373 30.17547353 34 31 C35.3125 33.0625 35.3125 33.0625 36 35 C33.33266108 38.45185037 30.0820382 38.91460256 26 40 C22.952658 51.68025553 20.35469672 63.42936693 17.90795898 75.24902344 C17.30601401 78.15632633 16.69927409 81.06259851 16.09179688 83.96875 C15.70285054 85.83588035 15.3141688 87.70306584 14.92578125 89.5703125 C14.74662674 90.42972443 14.56747223 91.28913635 14.38288879 92.17459106 C13.50139799 96.43861201 12.67756682 100.69755964 12 105 C12.721875 104.649375 13.44375 104.29875 14.1875 103.9375 C17.3122705 102.89590983 18.88161996 103.10903428 22 104 C22.75 105.75 22.75 105.75 23 108 C19.87199627 112.18156112 16.06997307 113.14997837 11.1875 114.25 C10.50107422 114.42273438 9.81464844 114.59546875 9.10742188 114.7734375 C4.67680445 115.82974364 0.5829587 116.25819486 -4 116 C-5 115 -5 115 -5.0625 111.9375 C-5.041875 110.968125 -5.02125 109.99875 -5 109 C-1.535 108.01 -1.535 108.01 2 107 C2.15557373 106.27224365 2.31114746 105.5444873 2.47143555 104.79467773 C3.2097235 101.34219944 3.94860454 97.88984832 4.6875 94.4375 C4.95788086 93.17292969 5.22826172 91.90835938 5.50683594 90.60546875 C6.80387725 84.54754074 8.10724176 78.49129679 9.44140625 72.44140625 C12.57169561 58.28757601 12.57169561 58.28757601 15 44 C12.36 44 9.72 44 7 44 C5.62926337 49.04923237 4.26011142 54.09889099 2.89233398 59.14892578 C2.42823561 60.86160471 1.96372796 62.5741728 1.4987793 64.28662109 C0.82489222 66.76890483 0.15226712 69.2515252 -0.51953125 71.734375 C-0.73715118 72.53814575 -0.95477112 73.3419165 -1.1789856 74.17004395 C-2.68098815 79.74479659 -4.09702755 85.33582772 -5.4284668 90.95410156 C-6 93 -6 93 -7 94 C-9.5 94.125 -9.5 94.125 -12 94 C-13.52951744 92.47048256 -13.16672614 91.08900297 -13.18334961 88.9621582 C-13.12728834 84.27436007 -12.3012149 80.10920005 -11.06640625 75.60546875 C-10.86901352 74.8508284 -10.67162079 74.09618805 -10.46824646 73.31867981 C-9.84327313 70.93876202 -9.2032579 68.56321081 -8.5625 66.1875 C-8.13635296 64.5764405 -7.71121419 62.96511394 -7.28710938 61.35351562 C-6.51087285 58.40869496 -5.72879311 55.46556996 -4.93969727 52.52416992 C-4.27200672 50.02011355 -3.61542057 47.5171876 -3 45 C-6.93066136 45.55165603 -10.83815495 46.20363071 -14.75 46.875 C-15.86117187 47.0296875 -16.97234375 47.184375 -18.1171875 47.34375 C-24.16069461 48.30598739 -24.16069461 48.30598739 -28.58129883 52.15649414 C-29.64559462 54.75559822 -30.37045774 57.26496007 -31 60 C-31.40726802 61.33812205 -31.81712598 62.67546069 -32.23046875 64.01171875 C-32.54628906 65.22472656 -32.86210937 66.43773437 -33.1875 67.6875 C-33.51105469 68.90824219 -33.83460938 70.12898438 -34.16796875 71.38671875 C-35.06056813 75.02694501 -35.06056813 75.02694501 -35.55078125 78.89453125 C-36 82 -36 82 -37 83 C-38.99958364 83.04080783 -41.00045254 83.04254356 -43 83 C-46.17732615 76.6453477 -43.71179359 67.27470131 -42.4375 60.62890625 C-41.89055914 57.78655462 -41.89055914 57.78655462 -42 54 C-42.66 53.34 -43.32 52.68 -44 52 C-44.375 49.5625 -44.375 49.5625 -44 47 C-42.11034367 45.17783139 -40.41342493 44.16934995 -37.99145508 43.17724609 C-35.49021692 41.69864239 -34.99094114 40.51346091 -33.88671875 37.8515625 C-33.52932617 37.01641113 -33.17193359 36.18125977 -32.80371094 35.32080078 C-32.43536133 34.43118652 -32.06701172 33.54157227 -31.6875 32.625 C-20.20426695 6.03150116 -20.20426695 6.03150116 -9.890625 0.6953125 C-6.33097423 -0.61381526 -3.79438049 -0.48182609 0 0 Z M-13.82177734 16.17822266 C-21.3912978 27.44317694 -21.3912978 27.44317694 -25 40 C-22.3115346 39.71573032 -19.62447143 39.42281156 -16.9375 39.125 C-16.18533203 39.04636719 -15.43316406 38.96773437 -14.65820312 38.88671875 C-9.9085007 38.35212021 -5.55890412 37.44092853 -1 36 C2.11680777 23.15471281 2.11680777 23.15471281 -0.20703125 10.65234375 C-1.90657715 8.79150654 -1.90657715 8.79150654 -4.45703125 8.546875 C-8.99420595 9.35534238 -11.19633594 12.56368878 -13.82177734 16.17822266 Z " fill="#D02976" transform="translate(253,153)"/>
<path d="M0 0 C4.93875367 2.42278482 6.98994752 4.92197269 9 10 C11.49746752 18.13411296 10.1453444 26.9549585 8 35 C8.99 35.33 9.98 35.66 11 36 C9.68 36 8.36 36 7 36 C7.02356567 35.01773438 7.02356567 35.01773438 7.04760742 34.015625 C7.11047934 31.01050669 7.14915488 28.00552737 7.1875 25 C7.21263672 23.97003906 7.23777344 22.94007813 7.26367188 21.87890625 C7.32440044 15.52264979 6.84492349 10.72963613 4 5 C-0.06102978 2.29264681 -3.23828746 2.48499208 -8 3 C-13.81513931 5.21529116 -18.52335189 10.95501647 -21.1953125 16.46484375 C-21.85153812 18.14157771 -22.48357999 19.8279986 -23.08984375 21.5234375 C-24.43295548 25.17808486 -26.20910897 28.54613873 -28 32 C-28.66 32 -29.32 32 -30 32 C-30.15855469 32.59167969 -30.31710938 33.18335938 -30.48046875 33.79296875 C-32.31578188 40.00869776 -34.46973111 43.99633388 -40.3125 47.3125 C-40.869375 47.539375 -41.42625 47.76625 -42 48 C-42 48.99 -42 49.98 -42 51 C-40.68 51.33 -39.36 51.66 -38 52 C-38.20496094 52.78503906 -38.40992188 53.57007813 -38.62109375 54.37890625 C-41.0326651 63.78288067 -42.15789312 72.29834471 -42 82 C-40.68 82 -39.36 82 -38 82 C-37.91363281 81.27039063 -37.82726562 80.54078125 -37.73828125 79.7890625 C-36.79998446 72.81639831 -35.37294875 66.15153235 -33.5 59.375 C-33.28641846 58.59334473 -33.07283691 57.81168945 -32.8527832 57.00634766 C-31.8873849 53.60645053 -30.97442968 50.96164452 -29 48 C-26.12276649 47.14595935 -23.36874012 46.4645495 -20.4375 45.875 C-19.27637695 45.62169922 -19.27637695 45.62169922 -18.09179688 45.36328125 C-12.74591416 44.23267825 -7.43717914 43.53231124 -2 43 C-0.64050512 47.07848463 -1.85513897 50.17680945 -2.9375 54.1875 C-3.13279297 54.93708984 -3.32808594 55.68667969 -3.52929688 56.45898438 C-4.01214375 58.30793459 -4.50510633 60.15423776 -5 62 C-6.44715727 58.12813552 -5.5441918 55.1767672 -4.5625 51.25 C-4.27503906 50.07953125 -3.98757812 48.9090625 -3.69140625 47.703125 C-3.46324219 46.81109375 -3.23507813 45.9190625 -3 45 C-6.93066136 45.55165603 -10.83815495 46.20363071 -14.75 46.875 C-15.86117187 47.0296875 -16.97234375 47.184375 -18.1171875 47.34375 C-24.16069461 48.30598739 -24.16069461 48.30598739 -28.58129883 52.15649414 C-29.64559462 54.75559822 -30.37045774 57.26496007 -31 60 C-31.40726802 61.33812205 -31.81712598 62.67546069 -32.23046875 64.01171875 C-32.54628906 65.22472656 -32.86210937 66.43773437 -33.1875 67.6875 C-33.51105469 68.90824219 -33.83460938 70.12898438 -34.16796875 71.38671875 C-35.06056813 75.02694501 -35.06056813 75.02694501 -35.55078125 78.89453125 C-36 82 -36 82 -37 83 C-38.99958364 83.04080783 -41.00045254 83.04254356 -43 83 C-46.17732615 76.6453477 -43.71179359 67.27470131 -42.4375 60.62890625 C-41.89055914 57.78655462 -41.89055914 57.78655462 -42 54 C-42.66 53.34 -43.32 52.68 -44 52 C-44.375 49.5625 -44.375 49.5625 -44 47 C-42.11034367 45.17783139 -40.41342493 44.16934995 -37.99145508 43.17724609 C-35.49021692 41.69864239 -34.99094114 40.51346091 -33.88671875 37.8515625 C-33.52932617 37.01641113 -33.17193359 36.18125977 -32.80371094 35.32080078 C-32.43536133 34.43118652 -32.06701172 33.54157227 -31.6875 32.625 C-20.20426695 6.03150116 -20.20426695 6.03150116 -9.890625 0.6953125 C-6.33097423 -0.61381526 -3.79438049 -0.48182609 0 0 Z " fill="#B12B6D" transform="translate(253,153)"/>
<path d="M0 0 C2.375 0.0625 2.375 0.0625 5 1 C6.8125 4.0625 6.8125 4.0625 8 7 C10.07193154 5.16215076 10.07193154 5.16215076 10.9375 2.9375 C12 1 12 1 15 0 C15.99 0.66 16.98 1.32 18 2 C18.29296875 5.0390625 18.29296875 5.0390625 18.1875 8.625 C18.16042969 9.81351562 18.13335937 11.00203125 18.10546875 12.2265625 C18.07066406 13.14179688 18.03585938 14.05703125 18 15 C15.69 15 13.38 15 11 15 C11 13.35 11 11.7 11 10 C10.34 11.65 9.68 13.3 9 15 C6.00675737 13.9024777 5.15389099 13.32317108 3.75 10.375 C3.5025 9.59125 3.255 8.8075 3 8 C3 10.31 3 12.62 3 15 C1.35 14.67 -0.3 14.34 -2 14 C-1.85970581 11.8537974 -1.71261836 9.70803782 -1.5625 7.5625 C-1.48128906 6.36753906 -1.40007812 5.17257812 -1.31640625 3.94140625 C-1 1 -1 1 0 0 Z " fill="#B12C6F" transform="translate(145,284)"/>
<path d="M0 0 C0.66 0.33 1.32 0.66 2 1 C1.64844849 2.34747314 1.64844849 2.34747314 1.28979492 3.72216797 C-1.4835187 14.50140848 -3.83608821 25.35100733 -6.09204102 36.24902344 C-6.69398599 39.15632633 -7.30072591 42.06259851 -7.90820312 44.96875 C-8.29714946 46.83588035 -8.6858312 48.70306584 -9.07421875 50.5703125 C-9.34295052 51.85943039 -9.34295052 51.85943039 -9.61711121 53.17459106 C-10.49860201 57.43861201 -11.32243318 61.69755964 -12 66 C-11.278125 65.649375 -10.55625 65.29875 -9.8125 64.9375 C-6.6877295 63.89590983 -5.11838004 64.10903428 -2 65 C-1.25 66.75 -1.25 66.75 -1 69 C-2.6875 71.3125 -2.6875 71.3125 -5 73 C-7.25 72.75 -7.25 72.75 -9 72 C-6.525 71.01 -6.525 71.01 -4 70 C-4 69.01 -4 68.02 -4 67 C-8.95 67.495 -8.95 67.495 -14 68 C-14.125 58.25 -14.125 58.25 -13 56 C-12.69208131 53.66922657 -12.49104726 51.33758104 -12.28125 48.99609375 C-12 47 -12 47 -11 46 C-10.75279581 43.9079201 -10.61692633 41.81660734 -10.4765625 39.71484375 C-10 37 -10 37 -8.65625 33.59375 C-6.25845167 27.46548378 -5.1798773 20.9918075 -3.875 14.5625 C-3.35486637 12.0214569 -2.83160693 9.4810509 -2.3046875 6.94140625 C-2.07765137 5.82451416 -1.85061523 4.70762207 -1.61669922 3.55688477 C-1 1 -1 1 0 0 Z " fill="#B62C6F" transform="translate(277,192)"/>
<path d="M0 0 C1.52519276 0.08937803 3.04681929 0.24537146 4.5625 0.4375 C5.80193359 0.59025391 5.80193359 0.59025391 7.06640625 0.74609375 C7.70449219 0.82988281 8.34257812 0.91367187 9 1 C10.0448758 5.62730711 10.51756279 10.28853878 11 15 C9.35 15 7.7 15 6 15 C5.67 13.35 5.34 11.7 5 10 C5 11.65 5 13.3 5 15 C3.02 15 1.04 15 -1 15 C-1.02685412 12.68756208 -1.04632841 10.3750373 -1.0625 8.0625 C-1.07410156 6.77472656 -1.08570313 5.48695313 -1.09765625 4.16015625 C-1 1 -1 1 0 0 Z M4 2 C5 6 5 6 5 6 Z " fill="#B12B6E" transform="translate(268,284)"/>
<path d="M0 0 C2.6875 1.0625 2.6875 1.0625 4.6875 4.0625 C4.94628906 6.14379883 4.94628906 6.14379883 4.953125 8.51953125 C4.95699219 9.81793945 4.95699219 9.81793945 4.9609375 11.14257812 C4.95320313 12.04427734 4.94546875 12.94597656 4.9375 13.875 C4.94523437 14.76509766 4.95296875 15.65519531 4.9609375 16.57226562 C4.93258662 26.13359841 4.93258662 26.13359841 2.6875 30.0625 C0.15919571 31.1343169 -1.65543921 31.63879491 -4.3125 32.0625 C-5.08835449 32.20204102 -5.86420898 32.34158203 -6.66357422 32.48535156 C-9.18820815 32.92024044 -11.71621117 33.30984022 -14.25 33.6875 C-15.56194336 33.88859375 -15.56194336 33.88859375 -16.90039062 34.09375 C-19.03714934 34.42068576 -21.17474299 34.74215679 -23.3125 35.0625 C-23.46337022 29.77575618 -23.00874506 26.66858531 -20.3125 22.0625 C-19.6525 22.0625 -18.9925 22.0625 -18.3125 22.0625 C-18.10625 21.27875 -17.9 20.495 -17.6875 19.6875 C-14.74668966 11.93445455 -9.4796729 0.17886175 0 0 Z M-11.13427734 9.24072266 C-18.7037978 20.50567694 -18.7037978 20.50567694 -22.3125 33.0625 C-19.6240346 32.77823032 -16.93697143 32.48531156 -14.25 32.1875 C-13.49783203 32.10886719 -12.74566406 32.03023437 -11.97070312 31.94921875 C-7.2210007 31.41462021 -2.87140412 30.50342853 1.6875 29.0625 C4.80430777 16.21721281 4.80430777 16.21721281 2.48046875 3.71484375 C0.78092285 1.85400654 0.78092285 1.85400654 -1.76953125 1.609375 C-6.30670595 2.41784238 -8.50883594 5.62618878 -11.13427734 9.24072266 Z " fill="#B22B6E" transform="translate(250.3125,159.9375)"/>
<path d="M0 0 C3.69459731 0.19970796 4.78742451 0.76444338 7.3125 3.5625 C8.1478125 4.7690625 8.1478125 4.7690625 9 6 C9 4.35 9 2.7 9 1 C10.32 0.67 11.64 0.34 13 0 C13 4.95 13 9.9 13 15 C8.60281354 13.90070338 8.20002666 13.44549271 5.75 9.9375 C5.22921875 9.20402344 4.7084375 8.47054688 4.171875 7.71484375 C3.78515625 7.14894531 3.3984375 6.58304687 3 6 C3 8.97 3 11.94 3 15 C1.68 15 0.36 15 -1 15 C-1.02685412 12.68756208 -1.04632841 10.3750373 -1.0625 8.0625 C-1.07410156 6.77472656 -1.08570313 5.48695313 -1.09765625 4.16015625 C-1 1 -1 1 0 0 Z " fill="#AA2B6B" transform="translate(185,284)"/>
<path d="M0 0 C1.37478516 0.01740234 1.37478516 0.01740234 2.77734375 0.03515625 C3.69644531 0.04417969 4.61554688 0.05320312 5.5625 0.0625 C6.27277344 0.07410156 6.98304688 0.08570313 7.71484375 0.09765625 C8.93903538 4.03561534 8.19804647 6.25877862 6.71484375 10.09765625 C7.70484375 10.42765625 8.69484375 10.75765625 9.71484375 11.09765625 C9.38484375 12.41765625 9.05484375 13.73765625 8.71484375 15.09765625 C4.75484375 15.09765625 0.79484375 15.09765625 -3.28515625 15.09765625 C-3.31201037 12.78521833 -3.33148466 10.47269355 -3.34765625 8.16015625 C-3.35925781 6.87238281 -3.37085938 5.58460938 -3.3828125 4.2578125 C-3.2555354 0.13912544 -3.2555354 0.13912544 0 0 Z M2.71484375 2.09765625 C2.38484375 3.41765625 2.05484375 4.73765625 1.71484375 6.09765625 C3.03484375 5.43765625 4.35484375 4.77765625 5.71484375 4.09765625 C5.38484375 3.43765625 5.05484375 2.77765625 4.71484375 2.09765625 C4.05484375 2.09765625 3.39484375 2.09765625 2.71484375 2.09765625 Z M2.71484375 9.09765625 C3.04484375 10.41765625 3.37484375 11.73765625 3.71484375 13.09765625 C4.70484375 12.76765625 5.69484375 12.43765625 6.71484375 12.09765625 C6.71484375 11.43765625 6.71484375 10.77765625 6.71484375 10.09765625 C5.39484375 9.76765625 4.07484375 9.43765625 2.71484375 9.09765625 Z " fill="#A72B6A" transform="translate(253.28515625,283.90234375)"/>
<path d="M0 0 C3.69459731 0.19970796 4.78742451 0.76444338 7.3125 3.5625 C8.1478125 4.7690625 8.1478125 4.7690625 9 6 C9 4.35 9 2.7 9 1 C10.32 0.67 11.64 0.34 13 0 C12.67 4.95 12.34 9.9 12 15 C11.01 15 10.02 15 9 15 C7.39453125 13.03125 7.39453125 13.03125 5.8125 10.5 C5.28269531 9.6646875 4.75289063 8.829375 4.20703125 7.96875 C3.80871094 7.3190625 3.41039062 6.669375 3 6 C3 8.97 3 11.94 3 15 C1.68 15 0.36 15 -1 15 C-1.02685412 12.68756208 -1.04632841 10.3750373 -1.0625 8.0625 C-1.07410156 6.77472656 -1.08570313 5.48695313 -1.09765625 4.16015625 C-1 1 -1 1 0 0 Z " fill="#AD2B6C" transform="translate(317,284)"/>
<path d="M0 0 C0.99 0 1.98 0 3 0 C3.83790789 1.78953185 4.67019396 3.58169695 5.5 5.375 C5.9640625 6.37273437 6.428125 7.37046875 6.90625 8.3984375 C8 11 8 11 8 13 C8.66 13.33 9.32 13.66 10 14 C9 15 9 15 5.4375 15.0625 C4.303125 15.041875 3.16875 15.02125 2 15 C2.33 13.68 2.66 12.36 3 11 C1.35 11 -0.3 11 -2 11 C-1.67 11.99 -1.34 12.98 -1 14 C-2.65 14.33 -4.3 14.66 -6 15 C-4.40109514 9.80355921 -2.25861997 4.93387858 0 0 Z M0 7 C1 9 1 9 1 9 Z " fill="#AB2B6B" transform="translate(121,284)"/>
<path d="M0 0 C3 1 3 1 4.60546875 3.94140625 C5.12753906 5.13636719 5.64960938 6.33132813 6.1875 7.5625 C6.71730469 8.76003906 7.24710938 9.95757812 7.79296875 11.19140625 C8.19128906 12.11824219 8.58960938 13.04507812 9 14 C8 15 8 15 4.9375 15.0625 C3.968125 15.041875 2.99875 15.02125 2 15 C1.34 12.69 0.68 10.38 0 8 C-0.33 8.99 -0.66 9.98 -1 11 C-1.66 11 -2.32 11 -3 11 C-2.67 12.32 -2.34 13.64 -2 15 C-3.65 15 -5.3 15 -7 15 C-5.63408831 11.45756548 -4.09068516 8.07372071 -2.375 4.6875 C-1.70597656 3.36298828 -1.70597656 3.36298828 -1.0234375 2.01171875 C-0.68570313 1.34785156 -0.34796875 0.68398438 0 0 Z " fill="#AA2A6B" transform="translate(216,284)"/>
<path d="M0 0 C2.68125418 2.38246339 4.11423459 4.8545504 5.6875 8.0625 C6.34298828 9.37927734 6.34298828 9.37927734 7.01171875 10.72265625 C8 13 8 13 8 15 C5.69 15 3.38 15 1 15 C1 13.68 1 12.36 1 11 C-0.32 11 -1.64 11 -3 11 C-3 12.32 -3 13.64 -3 15 C-4.65 15 -6.3 15 -8 15 C-6.38102741 11.69918209 -4.64075691 8.47442567 -2.875 5.25 C-2.33617187 4.26515625 -1.79734375 3.2803125 -1.2421875 2.265625 C-0.83226562 1.51796875 -0.42234375 0.7703125 0 0 Z M-2 6 C-1.67 6.99 -1.34 7.98 -1 9 C-0.67 8.01 -0.34 7.02 0 6 C-0.66 6 -1.32 6 -2 6 Z " fill="#AA2A6B" transform="translate(305,284)"/>
<path d="M0 0 C2 0.75 2 0.75 4 3.75 C4.66 2.43 5.32 1.11 6 -0.25 C6.99 -0.25 7.98 -0.25 9 -0.25 C7.125 4.5 7.125 4.5 6 6.75 C5.9310528 8.12342831 5.91532292 9.50002102 5.9375 10.875 C5.958125 12.15375 5.97875 13.4325 6 14.75 C3.69 14.75 1.38 14.75 -1 14.75 C-0.62875 13.7909375 -0.62875 13.7909375 -0.25 12.8125 C0.12640381 8.20155331 -1.94534972 4.79757287 -4 0.75 C-2 -0.25 -2 -0.25 0 0 Z " fill="#B12C6F" transform="translate(338,284.25)"/>
<path d="M0 0 C0.33 1.32 0.66 2.64 1 4 C1.66 4 2.32 4 3 4 C3 2.68 3 1.36 3 0 C3.99 -0.33 4.98 -0.66 6 -1 C6.66 -0.34 7.32 0.32 8 1 C7.319375 1.86625 6.63875 2.7325 5.9375 3.625 C3.70688081 7.51059472 3.92327665 8.79099055 5 13 C4 14 4 14 0.9375 14.0625 C-0.031875 14.041875 -1.00125 14.02125 -2 14 C-2.03738281 13.40832031 -2.07476562 12.81664062 -2.11328125 12.20703125 C-2.51376901 7.39332549 -3.0385035 3.99158223 -6 0 C-3.50907189 -1.24546405 -2.58919267 -0.7767578 0 0 Z " fill="#B72D71" transform="translate(288,285)"/>
<path d="M0 0 C1.65 0.33 3.3 0.66 5 1 C4.67 4.63 4.34 8.26 4 12 C5.98 11.34 7.96 10.68 10 10 C10 11.65 10 13.3 10 15 C6.37 15 2.74 15 -1 15 C-1.02685412 12.68756208 -1.04632841 10.3750373 -1.0625 8.0625 C-1.07410156 6.77472656 -1.08570313 5.48695313 -1.09765625 4.16015625 C-1 1 -1 1 0 0 Z " fill="#B32C6F" transform="translate(229,284)"/>
<path d="M0 0 C4.25983217 3.49914785 6.15672955 7.92120163 8 13 C8 13.66 8 14.32 8 15 C5.69 15 3.38 15 1 15 C-2.67561762 5.46831364 -2.67561762 5.46831364 -1 1 C-0.67 0.67 -0.34 0.34 0 0 Z " fill="#B52C70" transform="translate(173,284)"/>
<path d="M0 0 C1.98 0.495 1.98 0.495 4 1 C4.33 5.62 4.66 10.24 5 15 C3.02 15 1.04 15 -1 15 C-1.02685412 12.68756208 -1.04632841 10.3750373 -1.0625 8.0625 C-1.07410156 6.77472656 -1.08570313 5.48695313 -1.09765625 4.16015625 C-1 1 -1 1 0 0 Z " fill="#B62C70" transform="translate(135,284)"/>
<path d="M0 0 C0.99 0 1.98 0 3 0 C3.83790789 1.78953185 4.67019396 3.58169695 5.5 5.375 C5.9640625 6.37273437 6.428125 7.37046875 6.90625 8.3984375 C8 11 8 11 8 13 C8.66 13.33 9.32 13.66 10 14 C8.35 14 6.7 14 5 14 C3.68 11.03 2.36 8.06 1 5 C0.34 5 -0.32 5 -1 5 C-0.67 3.35 -0.34 1.7 0 0 Z " fill="#B72C70" transform="translate(121,284)"/>
<path d="M0 0 C0.93639629 3.35147599 0.92092386 5.51309652 0.1875 8.9375 C0.01605469 9.77152344 -0.15539062 10.60554687 -0.33203125 11.46484375 C-1 14 -1 14 -2.03515625 16.453125 C-3.11533444 19.30444557 -3.40560743 21.7775694 -3.625 24.8125 C-3.69976562 25.78832031 -3.77453125 26.76414063 -3.8515625 27.76953125 C-3.90054688 28.50558594 -3.94953125 29.24164063 -4 30 C-2.35 29.67 -0.7 29.34 1 29 C0.67 29.99 0.34 30.98 0 32 C-1.66611905 32.042721 -3.33382885 32.04063832 -5 32 C-6 31 -6 31 -6.25 27.16015625 C-6.18509731 21.31080171 -4.63934309 16.0164356 -3 10.4375 C-2.71382812 9.42880859 -2.42765625 8.42011719 -2.1328125 7.38085938 C-1.43229533 4.917374 -0.72122895 2.45748534 0 0 Z " fill="#B22C6E" transform="translate(246,215)"/>
<path d="M0 0 C1.3125 2.0625 1.3125 2.0625 2 4 C-0.06756277 6.7972908 -1.14440371 7.02692273 -4.6875 7.6875 C-5.780625 7.790625 -6.87375 7.89375 -8 8 C-5.38058783 6.25372522 -3.96175123 5.61277612 -1 5 C-1 3.68 -1 2.36 -1 1 C-2.01320313 1.2165625 -3.02640625 1.433125 -4.0703125 1.65625 C-5.42181004 1.93781199 -6.77337625 2.2190445 -8.125 2.5 C-9.12273437 2.71462891 -9.12273437 2.71462891 -10.140625 2.93359375 C-14.16056422 3.7612283 -17.89904899 4.15330658 -22 4 C-22 3.67 -22 3.34 -22 3 C-19.2735685 2.2996047 -16.54476473 1.6144225 -13.8125 0.9375 C-13.04357422 0.73833984 -12.27464844 0.53917969 -11.48242188 0.33398438 C-4.03185755 -1.48868587 -4.03185755 -1.48868587 0 0 Z " fill="#B42C6F" transform="translate(287,184)"/>
<path d="M0 0 C0.33 0 0.66 0 1 0 C3.14285714 7.42857143 3.14285714 7.42857143 4 11 C4.99 11 5.98 11 7 11 C7 10.34 7 9.68 7 9 C7.66 9.33 8.32 9.66 9 10 C8.01 11.485 8.01 11.485 7 13 C3.4375 13.25 3.4375 13.25 0 13 C-1 12 -1 12 -1.1328125 9.53125 C-1.13023437 8.5309375 -1.12765625 7.530625 -1.125 6.5 C-1.12757813 5.4996875 -1.13015625 4.499375 -1.1328125 3.46875 C-1 1 -1 1 0 0 Z " fill="#BA2D72" transform="translate(253,285)"/>
<path d="M0 0 C2.55263088 2.274694 3.84144815 4.43202693 5.1875 7.5625 C5.53167969 8.34753906 5.87585938 9.13257813 6.23046875 9.94140625 C7 12 7 12 7 14 C5.68 14 4.36 14 3 14 C2.80664062 13.28972656 2.61328125 12.57945312 2.4140625 11.84765625 C2.15367187 10.92855469 1.89328125 10.00945312 1.625 9.0625 C1.36976563 8.14597656 1.11453125 7.22945313 0.8515625 6.28515625 C0.23339896 3.83254913 0.23339896 3.83254913 -2 3 C-1.34 2.01 -0.68 1.02 0 0 Z " fill="#B92E72" transform="translate(305,284)"/>
<path d="M0 0 C0.99 0 1.98 0 3 0 C1.125 4.75 1.125 4.75 0 7 C-0.0689472 8.37342831 -0.08467708 9.75002102 -0.0625 11.125 C-0.041875 12.40375 -0.02125 13.6825 0 15 C-2.31 15 -4.62 15 -7 15 C-6.67 14.34 -6.34 13.68 -6 13 C-4.02 13.495 -4.02 13.495 -2 14 C-2.44598663 9.36173909 -2.96846602 6.55875728 -6 3 C-6 2.34 -6 1.68 -6 1 C-5.34 1 -4.68 1 -4 1 C-3.34 1.99 -2.68 2.98 -2 4 C-1.34 2.68 -0.68 1.36 0 0 Z " fill="#A62B6A" transform="translate(344,284)"/>
<path d="M0 0 C2.0625 0.4375 2.0625 0.4375 4 1 C3.34 1 2.68 1 2 1 C2.33 5.62 2.66 10.24 3 15 C1.68 15 0.36 15 -1 15 C-1.02685412 12.68756208 -1.04632841 10.3750373 -1.0625 8.0625 C-1.07410156 6.77472656 -1.08570313 5.48695313 -1.09765625 4.16015625 C-1 1 -1 1 0 0 Z " fill="#A32B69" transform="translate(185,284)"/>
<path d="M0 0 C3 1 3 1 3.94921875 2.671875 C5.33170943 6.56333025 6.39357798 9.80183483 6 14 C5.34 14 4.68 14 4 14 C1 7.375 1 7.375 1 4 C0.34 4 -0.32 4 -1 4 C-0.67 2.68 -0.34 1.36 0 0 Z " fill="#B92D72" transform="translate(216,284)"/>
<path d="M0 0 C2.69384434 0.37156474 3.7802926 0.75494175 5.625 2.8125 C8.17557252 6.87022901 8.17557252 6.87022901 9 9 C8.67 9.99 8.34 10.98 8 12 C2.00704225 6.16901408 2.00704225 6.16901408 0 3 C0 2.01 0 1.02 0 0 Z " fill="#BA2F73" transform="translate(187,285)"/>
<path d="M0 0 C3 3 3 3 3.1875 6.6875 C3.125625 7.780625 3.06375 8.87375 3 10 C3.66 10 4.32 10 5 10 C5 7.36 5 4.72 5 2 C5.66 1.67 6.32 1.34 7 1 C7 4.33333333 7 7.66666667 7 11 C5.02 11 3.04 11 1 11 C0.67 7.37 0.34 3.74 0 0 Z " fill="#AD2B6C" transform="translate(285,288)"/>
<path d="M0 0 C1 3 1 3 -0.21484375 5.91796875 C-0.78332031 6.99691406 -1.35179687 8.07585937 -1.9375 9.1875 C-2.50339844 10.27417969 -3.06929687 11.36085937 -3.65234375 12.48046875 C-4.09707031 13.31191406 -4.54179687 14.14335937 -5 15 C-5.66 14.01 -6.32 13.02 -7 12 C-5.35 8.7 -3.7 5.4 -2 2 C-1.34 2 -0.68 2 0 2 C0 1.34 0 0.68 0 0 Z " fill="#BD2D73" transform="translate(230,170)"/>
<path d="M0 0 C1.8125 0.125 1.8125 0.125 4 1 C5.625 3.9375 5.625 3.9375 7 7 C7.66 7.66 8.32 8.32 9 9 C8.67 9.99 8.34 10.98 8 12 C6.66081194 10.37982158 5.3288031 8.75370657 4 7.125 C3.2575 6.22007812 2.515 5.31515625 1.75 4.3828125 C0 2 0 2 0 0 Z " fill="#BE2F75" transform="translate(319,285)"/>
<path d="M0 0 C2 3 2 3 2 5 C1.34 5 0.68 5 0 5 C0 6.32 0 7.64 0 9 C-1.32 9 -2.64 9 -4 9 C-2.80100302 5.9168649 -1.52299523 2.93720508 0 0 Z " fill="#A62A6A" transform="translate(170,290)"/>
<path d="M0 0 C0.33 0 0.66 0 1 0 C2.28571429 8.42857143 2.28571429 8.42857143 1 13 C0.34 12.67 -0.32 12.34 -1 12 C-1.02687279 10.18757948 -1.04633715 8.37504767 -1.0625 6.5625 C-1.07410156 5.55316406 -1.08570313 4.54382813 -1.09765625 3.50390625 C-1 1 -1 1 0 0 Z " fill="#C43077" transform="translate(269,285)"/>
<path d="M0 0 C2.5 2.0625 2.5 2.0625 5 5 C5.3125 8.8125 5.3125 8.8125 5 12 C4.34 12 3.68 12 3 12 C2 8 1 4 0 0 Z " fill="#C43077" transform="translate(337,286)"/>
</svg>
